<svg xmlns="http://www.w3.org/2000/svg" xmlns:xlink="http://www.w3.org/1999/xlink" version="1.1" id="Layer_1" x="0" y="0" viewBox="0 0 200.99 141.24" xml:space="preserve" enable-background="new 0 0 200.99 141.24"><style type="text/css">
	.st0{fill-rule:evenodd;clip-rule:evenodd;}
	.st1{fill-rule:evenodd;clip-rule:evenodd;fill:#FFFFFF;stroke:#FFFFFF;stroke-width:0.1;}
</style><path class="st0" d="M115.73 69.95h21.11l2.55-29.58c0.24-2.76 0.4-5.6 0.56-8.36h0.72c0.16 2.94 0.72 5.7 1.35 8.64l7.81 29.31h12.74l8.68-31.05c0.64-2.2 1.04-4.59 1.43-6.89h0.4l2.95 37.94h21.11l-9.88-69.27h-22.22l-6.77 27.19c-0.72 2.94-1.12 6.16-1.51 9.19h-0.56l-8.28-36.38h-22.46L115.73 69.95z"/><g><path class="st0" d="M110.64 105.8c0-0.05 0.01-0.1 0.01-0.15l-0.99 6.81c-0.07 0.28-0.11 0.57-0.11 0.87 0 1.69 1.28 3.08 2.92 3.29 -0.02-0.14-0.04-0.27-0.04-0.42 0-0.3 0.04-0.59 0.11-0.87l0.91-6.25C111.86 108.82 110.64 107.45 110.64 105.8z"/><path class="st0" d="M113.74 83.58l-0.09 0.8c-0.07 0.28-0.11 0.57-0.11 0.87 0 1.69 1.28 3.08 2.92 3.29 -0.02-0.14-0.04-0.27-0.04-0.42 0-0.3 0.04-0.59 0.11-0.87l0.09-0.8c0-2.08-1.32-3.82-3.17-4.48C113.63 82.48 113.74 83.02 113.74 83.58z"/><polygon class="st0" points="112.3 95.76 7.84 99.81 7.84 102.8 111.86 98.77 "/><polygon class="st0" points="109.07 118.62 7.84 129.92 7.84 133.12 108.6 121.87 "/><path class="st0" d="M197.14 80.17v18.34c-4.96-1.71-10.98-2.72-17.49-2.72 -23.34 0-37.18 15.43-65.67 13.33 -0.15 0-0.29-0.02-0.43-0.04 0.21 1.64 1.61 2.92 3.3 2.92 28.49 2.1 42.33-13.33 65.67-13.33 6.5 0 12.53 1.01 17.49 2.72V81.04C199.1 80.73 198.13 80.44 197.14 80.17z"/><path class="st0" d="M197.14 126.85c-4.96-1.71-10.98-2.72-17.49-2.72 -23.34 0-39.28 15.23-67.77 13.13 -0.56 0-1.1-0.12-1.6-0.3 0.66 1.84 2.41 3.17 4.48 3.17 28.49 2.1 44.43-13.13 67.77-13.13 6.5 0 12.53 1 17.49 2.72v-20.81c-0.92-0.32-1.89-0.6-2.88-0.87V126.85z"/></g><path class="st1" d="M197.14 98.52c-4.96-1.71-10.98-2.72-17.49-2.72 -23.34 0-37.18 15.43-65.67 13.33 -1.84 0-3.35-1.49-3.35-3.33 0-0.3 0.04-0.59 0.11-0.87l-1.09 7.52c-0.07 0.28-0.11 0.57-0.11 0.87 0 1.84 1.51 3.33 3.35 3.33 28.49 2.1 43.42-13.33 66.76-13.33 6.5 0 12.53 1 17.49 2.72v20.81c-4.96-1.71-10.98-2.72-17.49-2.72 -23.34 0-39.28 15.23-67.77 13.13 -2.63 0-4.77-2.13-4.77-4.76 0-0.28 0.02-0.56 0.07-0.83l1.88-13.06L4.97 130.24v-21.11l106.5-7.7 0.83-5.66L4.97 99.93V78.82h104.04c2.63 0 4.74 2.13 4.74 4.76l-0.09 0.8c-0.07 0.28-0.11 0.57-0.11 0.87 0 1.84 1.51 3.33 3.35 3.33 28.49 2.1 39.42-13.14 62.76-13.14 6.5 0 12.53 1.01 17.49 2.72V98.52z"/><path d="M78.23 0.69c0.65 0 0.72 0.29 0.72 0.88V4.9c0 0.29-0.07 0.59-0.14 0.69 -0.14 0.1-2.23 0.2-2.37 0.2 -1.94 0.1-4.02 0.78-4.02 3.72 0 1.57 0.29 2.84 1.58 8.03l8.33 34.77c4.96-19 10.87-43.99 12.96-51.34 0.29-0.29 0.36-0.29 0.72-0.29 1.87 0 2.7-0.18 2.92 0.4l15 54.83c0 0-1.4 9.77-1.9 13.24 -0.14 0.78-0.36 0.78-1.01 0.78h-4.38c-0.57 0-0.65-0.2-0.93-0.88 -1.58-7.74-2.23-10.38-4.67-19.4 -2.59-9.5-4.98-20.47-6.85-28.8 -2.37 10.29-2.95 12.64-8.26 33.5 -1.87 7.15-2.44 9.5-3.74 14.89 -0.22 0.59-0.29 0.69-0.86 0.69h-5.29c-0.5 0-0.57-0.29-0.72-0.98 -1.51-6.07-12.57-49.27-12.86-50.64 -1.61-5.89-2.43-11.68-5.82-11.68 -1.99 0-2.41 2.7-2.41 6.39v28.11c-0.08 6.47-0.08 16.06-6.3 23.51 -1.69 2.06-7.07 7.74-18.05 7.74 -4.92 0-11.14-1.37-15.9-6.27 -5.91-6.17-6.22-13.91-6.3-20.86V14.61C7.67 7.56 7 5.6 1.48 5.6c-0.38 0-0.38-0.1-0.46-0.69V1.58c0-0.69 0-1.08 0.77-1.08 1.77 0 19.23 0.1 23.53 0 0.23 0 0.54 0.1 0.54 0.69v3.72C25.78 5.6 25.62 5.6 24.78 5.6c-6.14 0-5.82 2.55-5.82 9.7v22.13l0.15 7.93c0.23 4.02 0.46 7.74 2.23 11.66 1.23 2.74 4.92 8.42 12.21 8.42 3.99 0 7.91-1.67 10.83-5.09 4.3-5.09 4.92-11.95 4.99-19.49V14.31c0-6.86-0.61-8.59-7.45-8.98 -0.54 0-0.61-0.1-0.61-0.59V1.38c0-0.59 0-0.69 0.46-0.69C41.77 0.7 77.23 0.69 78.23 0.69z"/></svg>